<?xml version="1.0" standalone="no"?>
<!DOCTYPE svg PUBLIC "-//W3C//DTD SVG 20010904//EN"
 "http://www.w3.org/TR/2001/REC-SVG-20010904/DTD/svg10.dtd">
<svg version="1.0" xmlns="http://www.w3.org/2000/svg"
 width="800.000000pt" height="800.000000pt" viewBox="0 0 800.000000 800.000000"
 preserveAspectRatio="xMidYMid meet">

<g transform="translate(0.000000,800.000000) scale(0.100000,-0.100000)"
fill="#000000" stroke="none">
<path d="M0 4000 l0 -4000 4000 0 4000 0 0 4000 0 4000 -4000 0 -4000 0 0
-4000z m5716 701 c65 -21 151 -48 190 -61 l72 -22 -11 -34 c-6 -19 -14 -34
-17 -34 -4 0 -36 9 -70 20 -94 30 -93 30 -119 -55 -13 -41 -21 -80 -18 -87 2
-8 37 -24 76 -36 54 -18 71 -28 71 -42 0 -28 -11 -50 -24 -50 -12 0 -304 91
-358 112 -23 9 -25 13 -17 40 4 17 10 32 12 34 2 2 32 -5 67 -16 94 -30 93
-30 118 53 12 40 22 79 22 87 0 10 -25 22 -68 35 -55 17 -68 24 -70 43 -3 18
12 52 23 52 1 0 55 -17 121 -39z m951 -13 c-2 -24 -18 -81 -35 -128 -17 -47
-49 -137 -72 -200 -23 -63 -52 -146 -65 -185 -13 -38 -42 -122 -65 -185 -23
-63 -48 -133 -55 -155 -7 -22 -32 -92 -55 -155 -23 -63 -57 -162 -77 -220 -47
-140 -52 -144 -162 -148 -53 -3 -97 1 -110 7 -20 11 -20 13 25 139 25 70 56
159 69 197 13 39 42 122 65 185 23 63 48 133 55 155 7 22 32 92 55 155 23 63
52 147 65 185 13 39 42 122 65 185 23 63 46 128 51 144 18 60 32 66 147 66
l104 0 -5 -42z m-4236 -22 c108 -27 152 -47 225 -103 142 -106 208 -250 220
-478 14 -258 -82 -480 -256 -590 -133 -84 -251 -105 -597 -105 l-263 0 0 650
0 650 288 0 c269 0 293 -2 383 -24z m1299 -63 c17 -49 42 -115 55 -148 13 -33
85 -224 160 -425 75 -201 159 -424 186 -495 27 -72 49 -134 49 -138 0 -4 -58
-7 -129 -7 l-129 0 -25 68 c-14 37 -40 110 -59 162 l-34 95 -261 3 -261 2 -25
-67 c-14 -38 -40 -111 -59 -163 l-35 -95 -127 -3 c-96 -2 -126 0 -126 10 0 7
11 42 24 78 59 160 189 508 201 540 8 19 51 134 95 255 45 121 99 264 119 317
l36 98 156 0 156 0 33 -87z m706 76 c6 -10 14 -36 44 -144 4 -16 34 -113 65
-215 31 -102 63 -205 70 -230 7 -25 37 -121 65 -215 28 -93 55 -181 59 -195
10 -33 15 -22 61 130 22 71 58 187 79 258 22 70 56 181 76 247 20 66 40 131
45 145 5 14 23 71 40 128 l31 102 134 0 c74 0 135 -3 135 -7 0 -5 -13 -48 -29
-98 -16 -49 -48 -151 -71 -225 -23 -74 -48 -153 -55 -175 -8 -22 -33 -101 -55
-175 -23 -74 -52 -166 -65 -205 -13 -38 -42 -131 -65 -205 -23 -74 -47 -151
-55 -170 l-13 -35 -182 0 -182 0 -13 35 c-8 19 -34 103 -60 185 -25 83 -50
161 -55 175 -5 14 -27 86 -50 160 -23 74 -66 212 -95 305 -30 94 -70 224 -91
290 -20 66 -39 126 -41 133 -7 16 262 18 273 1z m-3136 -218 c5 -11 10 -68 10
-126 0 -103 -1 -107 -27 -133 -19 -18 -86 -49 -198 -90 -215 -80 -246 -92
-267 -103 -10 -5 -24 -9 -32 -9 -7 0 -19 -6 -25 -14 -13 -15 -23 -10 154 -74
305 -111 349 -129 371 -149 23 -21 24 -29 24 -137 0 -117 -9 -146 -45 -146
-11 0 -413 151 -670 252 -27 11 -59 22 -70 25 -11 3 -24 9 -30 13 -5 4 -34 15
-63 26 -91 31 -92 35 -92 189 l0 134 28 19 c15 10 155 67 312 126 157 60 299
114 315 121 17 7 48 19 70 28 22 8 67 26 100 40 74 32 120 34 135 8z m5819
-82 c551 -209 609 -233 627 -257 9 -12 13 -56 14 -143 0 -118 -1 -127 -22
-146 -13 -11 -115 -55 -228 -98 -181 -68 -352 -133 -475 -182 -22 -8 -49 -19
-60 -23 -11 -4 -36 -14 -55 -22 -19 -9 -50 -19 -68 -23 -56 -12 -62 2 -62 135
0 139 8 155 91 183 30 10 63 22 74 27 11 4 70 26 130 48 236 85 264 96 260
103 -2 3 -91 39 -197 78 -263 99 -314 120 -337 143 -19 17 -21 31 -21 136 0
123 6 142 44 142 11 0 139 -45 285 -101z m-1595 -27 c15 -18 14 -22 -15 -79
-27 -52 -30 -67 -24 -104 9 -53 47 -93 102 -108 106 -29 182 42 183 170 0 20
6 28 25 33 37 9 45 0 45 -51 0 -108 -61 -200 -154 -229 -49 -15 -56 -15 -111
1 -74 21 -118 55 -144 110 -37 79 -19 188 41 253 26 27 30 27 52 4z m-118
-351 c8 -4 3 -33 -17 -95 -16 -50 -27 -91 -26 -92 16 -12 51 -24 70 -24 21 0
26 9 48 77 25 80 40 95 71 71 16 -12 16 -18 -7 -88 -14 -41 -25 -77 -25 -81 0
-7 35 -22 77 -34 20 -5 24 2 48 78 35 111 36 111 68 96 15 -7 27 -17 27 -23 0
-18 -71 -230 -80 -240 -5 -5 -73 12 -157 39 -232 73 -234 74 -227 99 3 12 22
70 41 129 37 113 40 116 89 88z m-96 -281 c18 -9 18 -11 0 -70 -13 -45 -15
-62 -7 -64 7 -2 32 -11 57 -19 25 -9 91 -30 148 -47 105 -33 110 -37 92 -84
-8 -22 -13 -24 -32 -16 -36 15 -281 90 -294 90 -6 0 -19 -27 -29 -60 -10 -33
-19 -60 -20 -60 -1 0 -16 5 -34 11 -26 9 -30 15 -25 33 4 11 24 77 46 146 22
69 41 131 43 138 5 15 29 16 55 2z"/>
<path d="M2015 4437 c-3 -6 -4 -190 -3 -407 l3 -395 125 -3 c250 -6 378 60
444 230 24 64 28 87 28 178 1 153 -28 236 -106 308 -87 80 -162 102 -352 102
-99 0 -136 -3 -139 -13z"/>
<path d="M3536 4422 c-4 -6 -25 -62 -47 -124 -62 -172 -116 -321 -124 -340 -7
-17 5 -18 174 -18 100 0 181 2 181 4 0 6 -99 279 -164 455 -8 19 -16 29 -20
23z"/>
</g>
</svg>
