{"asset":{"version":"2.0","generator":"Blockbench 4.11.1 glTF exporter"},"scenes":[{"nodes":[21],"name":"blockbench_export"}],"scene":0,"nodes":[{"translation":[0.5,0.48125,0.515625],"name":"cube","mesh":0},{"translation":[0.5,0.5,0.496875],"name":"cube","mesh":1},{"translation":[0.5,0.5,0.496875],"name":"cube","mesh":2},{"rotation":[0,0,0.3826834323650898,0.9238795325112867],"translation":[0.462498125,0.256248125,0.653125],"name":"cube","mesh":3},{"translation":[0.49375,0.50625,0.496875],"name":"cube","mesh":4},{"rotation":[0,0,-0.3826834323650898,0.9238795325112867],"translation":[0.5393475,0.2544025,0.653125],"name":"cube","mesh":5},{"rotation":[-0.19509032201612825,0,0,0.9807852804032304],"translation":[0.5,0.28125,0.9375],"name":"cube","mesh":6},{"name":"cube","mesh":7},{"translation":[0.49375,0.45625,0.51875],"name":"cube","mesh":8},{"rotation":[0.3826834323650898,0,0,0.9238795325112867],"translation":[0.5,0.0546875,0.8578125],"name":"cube","mesh":9},{"translation":[0.49375,0.45625,0.4875],"name":"cube","mesh":10},{"translation":[0.5,0.50625,0.553125],"name":"cube","mesh":11},{"rotation":[0,0,-0.3826834323650898,0.9238795325112867],"translation":[0.46875,0.24375,0.115625],"name":"cube","mesh":12},{"translation":[0.5,0.50625,0.553125],"name":"cube","mesh":13},{"translation":[0.5,0.475,0.553125],"name":"cube","mesh":14},{"rotation":[0,0,0.3826834323650898,0.9238795325112867],"translation":[0.53125,0.24375,0.115625],"name":"cube","mesh":15},{"translation":[0.5,0.50625,0.553125],"name":"cube","mesh":16},{"rotation":[0,0,-0.3826834323650898,0.9238795325112867],"translation":[0.53125,0.20625,0.115625],"name":"cube","mesh":17},{"translation":[0.5,0.50625,0.553125],"name":"cube","mesh":18},{"rotation":[0,0,0.3826834323650898,0.9238795325112867],"translation":[0.46875,0.20625,0.115625],"name":"cube","mesh":19},{"translation":[0.46875,0.20625,0.115625],"name":"Pistol"},{"children":[0,1,2,3,4,5,6,7,8,9,10,11,12,13,14,15,16,17,18,19,20]}],"bufferViews":[{"buffer":0,"byteOffset":0,"byteLength":288,"target":34962,"byteStride":12},{"buffer":0,"byteOffset":288,"byteLength":288,"target":34962,"byteStride":12},{"buffer":0,"byteOffset":576,"byteLength":192,"target":34962,"byteStride":8},{"buffer":0,"byteOffset":768,"byteLength":60,"target":34963},{"buffer":0,"byteOffset":828,"byteLength":288,"target":34962,"byteStride":12},{"buffer":0,"byteOffset":1116,"byteLength":288,"target":34962,"byteStride":12},{"buffer":0,"byteOffset":1404,"byteLength":192,"target":34962,"byteStride":8},{"buffer":0,"byteOffset":1596,"byteLength":48,"target":34963},{"buffer":0,"byteOffset":1644,"byteLength":288,"target":34962,"byteStride":12},{"buffer":0,"byteOffset":1932,"byteLength":288,"target":34962,"byteStride":12},{"buffer":0,"byteOffset":2220,"byteLength":192,"target":34962,"byteStride":8},{"buffer":0,"byteOffset":2412,"byteLength":60,"target":34963},{"buffer":0,"byteOffset":2472,"byteLength":288,"target":34962,"byteStride":12},{"buffer":0,"byteOffset":2760,"byteLength":288,"target":34962,"byteStride":12},{"buffer":0,"byteOffset":3048,"byteLength":192,"target":34962,"byteStride":8},{"buffer":0,"byteOffset":3240,"byteLength":36,"target":34963},{"buffer":0,"byteOffset":3276,"byteLength":288,"target":34962,"byteStride":12},{"buffer":0,"byteOffset":3564,"byteLength":288,"target":34962,"byteStride":12},{"buffer":0,"byteOffset":3852,"byteLength":192,"target":34962,"byteStride":8},{"buffer":0,"byteOffset":4044,"byteLength":36,"target":34963},{"buffer":0,"byteOffset":4080,"byteLength":288,"target":34962,"byteStride":12},{"buffer":0,"byteOffset":4368,"byteLength":288,"target":34962,"byteStride":12},{"buffer":0,"byteOffset":4656,"byteLength":192,"target":34962,"byteStride":8},{"buffer":0,"byteOffset":4848,"byteLength":36,"target":34963},{"buffer":0,"byteOffset":4884,"byteLength":288,"target":34962,"byteStride":12},{"buffer":0,"byteOffset":5172,"byteLength":288,"target":34962,"byteStride":12},{"buffer":0,"byteOffset":5460,"byteLength":192,"target":34962,"byteStride":8},{"buffer":0,"byteOffset":5652,"byteLength":60,"target":34963},{"buffer":0,"byteOffset":5712,"byteLength":288,"target":34962,"byteStride":12},{"buffer":0,"byteOffset":6000,"byteLength":288,"target":34962,"byteStride":12},{"buffer":0,"byteOffset":6288,"byteLength":192,"target":34962,"byteStride":8},{"buffer":0,"byteOffset":6480,"byteLength":48,"target":34963},{"buffer":0,"byteOffset":6528,"byteLength":288,"target":34962,"byteStride":12},{"buffer":0,"byteOffset":6816,"byteLength":288,"target":34962,"byteStride":12},{"buffer":0,"byteOffset":7104,"byteLength":192,"target":34962,"byteStride":8},{"buffer":0,"byteOffset":7296,"byteLength":48,"target":34963},{"buffer":0,"byteOffset":7344,"byteLength":288,"target":34962,"byteStride":12},{"buffer":0,"byteOffset":7632,"byteLength":288,"target":34962,"byteStride":12},{"buffer":0,"byteOffset":7920,"byteLength":192,"target":34962,"byteStride":8},{"buffer":0,"byteOffset":8112,"byteLength":48,"target":34963},{"buffer":0,"byteOffset":8160,"byteLength":288,"target":34962,"byteStride":12},{"buffer":0,"byteOffset":8448,"byteLength":288,"target":34962,"byteStride":12},{"buffer":0,"byteOffset":8736,"byteLength":192,"target":34962,"byteStride":8},{"buffer":0,"byteOffset":8928,"byteLength":48,"target":34963},{"buffer":0,"byteOffset":8976,"byteLength":288,"target":34962,"byteStride":12},{"buffer":0,"byteOffset":9264,"byteLength":288,"target":34962,"byteStride":12},{"buffer":0,"byteOffset":9552,"byteLength":192,"target":34962,"byteStride":8},{"buffer":0,"byteOffset":9744,"byteLength":36,"target":34963},{"buffer":0,"byteOffset":9780,"byteLength":288,"target":34962,"byteStride":12},{"buffer":0,"byteOffset":10068,"byteLength":288,"target":34962,"byteStride":12},{"buffer":0,"byteOffset":10356,"byteLength":192,"target":34962,"byteStride":8},{"buffer":0,"byteOffset":10548,"byteLength":24,"target":34963},{"buffer":0,"byteOffset":10572,"byteLength":288,"target":34962,"byteStride":12},{"buffer":0,"byteOffset":10860,"byteLength":288,"target":34962,"byteStride":12},{"buffer":0,"byteOffset":11148,"byteLength":192,"target":34962,"byteStride":8},{"buffer":0,"byteOffset":11340,"byteLength":36,"target":34963},{"buffer":0,"byteOffset":11376,"byteLength":288,"target":34962,"byteStride":12},{"buffer":0,"byteOffset":11664,"byteLength":288,"target":34962,"byteStride":12},{"buffer":0,"byteOffset":11952,"byteLength":192,"target":34962,"byteStride":8},{"buffer":0,"byteOffset":12144,"byteLength":12,"target":34963},{"buffer":0,"byteOffset":12156,"byteLength":288,"target":34962,"byteStride":12},{"buffer":0,"byteOffset":12444,"byteLength":288,"target":34962,"byteStride":12},{"buffer":0,"byteOffset":12732,"byteLength":192,"target":34962,"byteStride":8},{"buffer":0,"byteOffset":12924,"byteLength":24,"target":34963},{"buffer":0,"byteOffset":12948,"byteLength":288,"target":34962,"byteStride":12},{"buffer":0,"byteOffset":13236,"byteLength":288,"target":34962,"byteStride":12},{"buffer":0,"byteOffset":13524,"byteLength":192,"target":34962,"byteStride":8},{"buffer":0,"byteOffset":13716,"byteLength":36,"target":34963},{"buffer":0,"byteOffset":13752,"byteLength":288,"target":34962,"byteStride":12},{"buffer":0,"byteOffset":14040,"byteLength":288,"target":34962,"byteStride":12},{"buffer":0,"byteOffset":14328,"byteLength":192,"target":34962,"byteStride":8},{"buffer":0,"byteOffset":14520,"byteLength":24,"target":34963},{"buffer":0,"byteOffset":14544,"byteLength":288,"target":34962,"byteStride":12},{"buffer":0,"byteOffset":14832,"byteLength":288,"target":34962,"byteStride":12},{"buffer":0,"byteOffset":15120,"byteLength":192,"target":34962,"byteStride":8},{"buffer":0,"byteOffset":15312,"byteLength":36,"target":34963},{"buffer":0,"byteOffset":15348,"byteLength":288,"target":34962,"byteStride":12},{"buffer":0,"byteOffset":15636,"byteLength":288,"target":34962,"byteStride":12},{"buffer":0,"byteOffset":15924,"byteLength":192,"target":34962,"byteStride":8},{"buffer":0,"byteOffset":16116,"byteLength":24,"target":34963}],"buffers":[{"byteLength":16140,"uri":"data:application/octet-stream;base64,"}],"accessors":[{"bufferView":0,"componentType":5126,"count":24,"max":[0.0062500000931322575,-0.20000000298023224,0.234375],"min":[-0.0062500000931322575,-0.23125000298023224,0.20937499403953552],"type":"VEC3"},{"bufferView":1,"componentType":5126,"count":24,"max":[1,1,1],"min":[-1,-1,-1],"type":"VEC3"},{"bufferView":2,"componentType":5126,"count":24,"max":[1,1],"min":[0,0],"type":"VEC2"},{"bufferView":3,"componentType":5123,"count":30,"max":[23],"min":[0],"type":"SCALAR"},{"bufferView":4,"componentType":5126,"count":24,"max":[0.03750000149011612,-0.26875001192092896,0.5],"min":[-0.03750000149011612,-0.328125,0.20000000298023224],"type":"VEC3"},{"bufferView":5,"componentType":5126,"count":24,"max":[1,1,1],"min":[-1,-1,-1],"type":"VEC3"},{"bufferView":6,"componentType":5126,"count":24,"max":[1,1],"min":[0,0],"type":"VEC2"},{"bufferView":7,"componentType":5123,"count":24,"max":[23],"min":[0],"type":"SCALAR"},{"bufferView":8,"componentType":5126,"count":24,"max":[0.03750000149011612,-0.328125,0.5],"min":[-0.03750000149011612,-0.359375,0.20000000298023224],"type":"VEC3"},{"bufferView":9,"componentType":5126,"count":24,"max":[1,1,1],"min":[-1,-1,-1],"type":"VEC3"},{"bufferView":10,"componentType":5126,"count":24,"max":[1,1],"min":[0,0],"type":"VEC2"},{"bufferView":11,"componentType":5123,"count":30,"max":[23],"min":[0],"type":"SCALAR"},{"bufferView":12,"componentType":5126,"count":24,"max":[0.008837499655783176,-0.01767750084400177,0.343687504529953],"min":[-0.017674999311566353,-0.04267749935388565,0.043812498450279236],"type":"VEC3"},{"bufferView":13,"componentType":5126,"count":24,"max":[1,1,1],"min":[-1,-1,-1],"type":"VEC3"},{"bufferView":14,"componentType":5126,"count":24,"max":[1,1],"min":[0,0],"type":"VEC2"},{"bufferView":15,"componentType":5123,"count":18,"max":[23],"min":[8],"type":"SCALAR"},{"bufferView":16,"componentType":5126,"count":24,"max":[0.02500000037252903,-0.2562499940395355,0.5],"min":[-0.012500000186264515,-0.2750000059604645,0.20000000298023224],"type":"VEC3"},{"bufferView":17,"componentType":5126,"count":24,"max":[1,1,1],"min":[-1,-1,-1],"type":"VEC3"},{"bufferView":18,"componentType":5126,"count":24,"max":[1,1],"min":[0,0],"type":"VEC2"},{"bufferView":19,"componentType":5123,"count":18,"max":[23],"min":[8],"type":"SCALAR"},{"bufferView":20,"componentType":5126,"count":24,"max":[0.015065000392496586,-0.01767750084400177,0.343687504529953],"min":[-0.011447500437498093,-0.04267749935388565,0.043812498450279236],"type":"VEC3"},{"bufferView":21,"componentType":5126,"count":24,"max":[1,1,1],"min":[-1,-1,-1],"type":"VEC3"},{"bufferView":22,"componentType":5126,"count":24,"max":[1,1],"min":[0,0],"type":"VEC2"},{"bufferView":23,"componentType":5123,"count":18,"max":[23],"min":[8],"type":"SCALAR"},{"bufferView":24,"componentType":5126,"count":24,"max":[0.037437498569488525,-0.11874999850988388,0],"min":[-0.037437498569488525,-0.3187499940395355,-0.08124999701976776],"type":"VEC3"},{"bufferView":25,"componentType":5126,"count":24,"max":[1,1,1],"min":[-1,-1,-1],"type":"VEC3"},{"bufferView":26,"componentType":5126,"count":24,"max":[1,1],"min":[0,0],"type":"VEC2"},{"bufferView":27,"componentType":5123,"count":30,"max":[23],"min":[0],"type":"SCALAR"},{"bufferView":28,"componentType":5126,"count":24,"max":[0.512499988079071,0.14374999701976776,0.9281250238418579],"min":[0.48750001192092896,0.09843750298023224,0.895312488079071],"type":"VEC3"},{"bufferView":29,"componentType":5126,"count":24,"max":[1,1,1],"min":[-1,-1,-1],"type":"VEC3"},{"bufferView":30,"componentType":5126,"count":24,"max":[1,1],"min":[0,0],"type":"VEC2"},{"bufferView":31,"componentType":5123,"count":24,"max":[23],"min":[0],"type":"SCALAR"},{"bufferView":32,"componentType":5126,"count":24,"max":[0.02187499962747097,-0.37031251192092896,0.42656248807907104],"min":[-0.00937500037252903,-0.40156251192092896,0.33906251192092896],"type":"VEC3"},{"bufferView":33,"componentType":5126,"count":24,"max":[1,1,1],"min":[-1,-1,-1],"type":"VEC3"},{"bufferView":34,"componentType":5126,"count":24,"max":[1,1],"min":[0,0],"type":"VEC2"},{"bufferView":35,"componentType":5123,"count":24,"max":[15],"min":[0],"type":"SCALAR"},{"bufferView":36,"componentType":5126,"count":24,"max":[0.01556249987334013,0.03125,0],"min":[-0.01556249987334013,0,-0.04419374838471413],"type":"VEC3"},{"bufferView":37,"componentType":5126,"count":24,"max":[1,1,1],"min":[-1,-1,-1],"type":"VEC3"},{"bufferView":38,"componentType":5126,"count":24,"max":[1,1],"min":[0,0],"type":"VEC2"},{"bufferView":39,"componentType":5123,"count":24,"max":[15],"min":[0],"type":"SCALAR"},{"bufferView":40,"componentType":5126,"count":24,"max":[0.02187499962747097,-0.3140625059604645,0.37031251192092896],"min":[-0.00937500037252903,-0.37031251192092896,0.33906251192092896],"type":"VEC3"},{"bufferView":41,"componentType":5126,"count":24,"max":[1,1,1],"min":[-1,-1,-1],"type":"VEC3"},{"bufferView":42,"componentType":5126,"count":24,"max":[1,1],"min":[0,0],"type":"VEC2"},{"bufferView":43,"componentType":5123,"count":24,"max":[23],"min":[0],"type":"SCALAR"},{"bufferView":44,"componentType":5126,"count":24,"max":[-0.015625,-0.28125,0.14374999701976776],"min":[-0.03125,-0.3187499940395355,0.11249999701976776],"type":"VEC3"},{"bufferView":45,"componentType":5126,"count":24,"max":[1,1,1],"min":[-1,-1,-1],"type":"VEC3"},{"bufferView":46,"componentType":5126,"count":24,"max":[1,1],"min":[0,0],"type":"VEC2"},{"bufferView":47,"componentType":5123,"count":18,"max":[23],"min":[0],"type":"SCALAR"},{"bufferView":48,"componentType":5126,"count":24,"max":[0.025758124887943268,0.004366875160485506,0.5813124775886536],"min":[0.013258124701678753,-0.013258124701678753,0.5500624775886536],"type":"VEC3"},{"bufferView":49,"componentType":5126,"count":24,"max":[1,1,1],"min":[-1,-1,-1],"type":"VEC3"},{"bufferView":50,"componentType":5126,"count":24,"max":[1,1],"min":[0,0],"type":"VEC2"},{"bufferView":51,"componentType":5123,"count":12,"max":[23],"min":[4],"type":"SCALAR"},{"bufferView":52,"componentType":5126,"count":24,"max":[0.01875000074505806,-0.26875001192092896,0.14374999701976776],"min":[-0.01875000074505806,-0.28437501192092896,0.11249999701976776],"type":"VEC3"},{"bufferView":53,"componentType":5126,"count":24,"max":[1,1,1],"min":[-1,-1,-1],"type":"VEC3"},{"bufferView":54,"componentType":5126,"count":24,"max":[1,1],"min":[0,0],"type":"VEC2"},{"bufferView":55,"componentType":5123,"count":18,"max":[23],"min":[8],"type":"SCALAR"},{"bufferView":56,"componentType":5126,"count":24,"max":[0.015625,-0.25312501192092896,0.14374999701976776],"min":[-0.015625,-0.28437501192092896,0.13750000298023224],"type":"VEC3"},{"bufferView":57,"componentType":5126,"count":24,"max":[1,1,1],"min":[-1,-1,-1],"type":"VEC3"},{"bufferView":58,"componentType":5126,"count":24,"max":[1,1],"min":[0,0],"type":"VEC2"},{"bufferView":59,"componentType":5123,"count":6,"max":[23],"min":[20],"type":"SCALAR"},{"bufferView":60,"componentType":5126,"count":24,"max":[-0.013258124701678753,0.004366875160485506,0.5813124775886536],"min":[-0.025758124887943268,-0.013258124701678753,0.5500624775886536],"type":"VEC3"},{"bufferView":61,"componentType":5126,"count":24,"max":[1,1,1],"min":[-1,-1,-1],"type":"VEC3"},{"bufferView":62,"componentType":5126,"count":24,"max":[1,1],"min":[0,0],"type":"VEC2"},{"bufferView":63,"componentType":5123,"count":12,"max":[23],"min":[0],"type":"SCALAR"},{"bufferView":64,"componentType":5126,"count":24,"max":[0.03125,-0.28125,0.14374999701976776],"min":[0.015625,-0.3187499940395355,0.11249999701976776],"type":"VEC3"},{"bufferView":65,"componentType":5126,"count":24,"max":[1,1,1],"min":[-1,-1,-1],"type":"VEC3"},{"bufferView":66,"componentType":5126,"count":24,"max":[1,1],"min":[0,0],"type":"VEC2"},{"bufferView":67,"componentType":5123,"count":18,"max":[23],"min":[0],"type":"SCALAR"},{"bufferView":68,"componentType":5126,"count":24,"max":[0.013258124701678753,-0.013258124701678753,0.5813124775886536],"min":[0.0007581249810755253,-0.030883124098181725,0.5500624775886536],"type":"VEC3"},{"bufferView":69,"componentType":5126,"count":24,"max":[1,1,1],"min":[-1,-1,-1],"type":"VEC3"},{"bufferView":70,"componentType":5126,"count":24,"max":[1,1],"min":[0,0],"type":"VEC2"},{"bufferView":71,"componentType":5123,"count":12,"max":[23],"min":[0],"type":"SCALAR"},{"bufferView":72,"componentType":5126,"count":24,"max":[0.01875000074505806,-0.31562501192092896,0.14374999701976776],"min":[-0.01875000074505806,-0.33125001192092896,0.11249999701976776],"type":"VEC3"},{"bufferView":73,"componentType":5126,"count":24,"max":[1,1,1],"min":[-1,-1,-1],"type":"VEC3"},{"bufferView":74,"componentType":5126,"count":24,"max":[1,1],"min":[0,0],"type":"VEC2"},{"bufferView":75,"componentType":5123,"count":18,"max":[23],"min":[8],"type":"SCALAR"},{"bufferView":76,"componentType":5126,"count":24,"max":[-0.0007581249810755253,-0.013258124701678753,0.5813124775886536],"min":[-0.013258124701678753,-0.030883124098181725,0.5500624775886536],"type":"VEC3"},{"bufferView":77,"componentType":5126,"count":24,"max":[1,1,1],"min":[-1,-1,-1],"type":"VEC3"},{"bufferView":78,"componentType":5126,"count":24,"max":[1,1],"min":[0,0],"type":"VEC2"},{"bufferView":79,"componentType":5123,"count":12,"max":[23],"min":[4],"type":"SCALAR"}],"materials":[{"pbrMetallicRoughness":{"metallicFactor":0,"roughnessFactor":1,"baseColorTexture":{"index":0}},"alphaMode":"MASK","alphaCutoff":0.05}],"textures":[{"sampler":0,"source":0}],"samplers":[{"magFilter":9728,"minFilter":9728,"wrapS":33071,"wrapT":33071}],"images":[{"mimeType":"image/png","uri":"data:image/png;base64,"}],"meshes":[{"primitives":[{"mode":4,"attributes":{"POSITION":0,"NORMAL":1,"TEXCOORD_0":2},"indices":3,"material":0}]},{"primitives":[{"mode":4,"attributes":{"POSITION":4,"NORMAL":5,"TEXCOORD_0":6},"indices":7,"material":0}]},{"primitives":[{"mode":4,"attributes":{"POSITION":8,"NORMAL":9,"TEXCOORD_0":10},"indices":11,"material":0}]},{"primitives":[{"mode":4,"attributes":{"POSITION":12,"NORMAL":13,"TEXCOORD_0":14},"indices":15,"material":0}]},{"primitives":[{"mode":4,"attributes":{"POSITION":16,"NORMAL":17,"TEXCOORD_0":18},"indices":19,"material":0}]},{"primitives":[{"mode":4,"attributes":{"POSITION":20,"NORMAL":21,"TEXCOORD_0":22},"indices":23,"material":0}]},{"primitives":[{"mode":4,"attributes":{"POSITION":24,"NORMAL":25,"TEXCOORD_0":26},"indices":27,"material":0}]},{"primitives":[{"mode":4,"attributes":{"POSITION":28,"NORMAL":29,"TEXCOORD_0":30},"indices":31,"material":0}]},{"primitives":[{"mode":4,"attributes":{"POSITION":32,"NORMAL":33,"TEXCOORD_0":34},"indices":35,"material":0}]},{"primitives":[{"mode":4,"attributes":{"POSITION":36,"NORMAL":37,"TEXCOORD_0":38},"indices":39,"material":0}]},{"primitives":[{"mode":4,"attributes":{"POSITION":40,"NORMAL":41,"TEXCOORD_0":42},"indices":43,"material":0}]},{"primitives":[{"mode":4,"attributes":{"POSITION":44,"NORMAL":45,"TEXCOORD_0":46},"indices":47,"material":0}]},{"primitives":[{"mode":4,"attributes":{"POSITION":48,"NORMAL":49,"TEXCOORD_0":50},"indices":51,"material":0}]},{"primitives":[{"mode":4,"attributes":{"POSITION":52,"NORMAL":53,"TEXCOORD_0":54},"indices":55,"material":0}]},{"primitives":[{"mode":4,"attributes":{"POSITION":56,"NORMAL":57,"TEXCOORD_0":58},"indices":59,"material":0}]},{"primitives":[{"mode":4,"attributes":{"POSITION":60,"NORMAL":61,"TEXCOORD_0":62},"indices":63,"material":0}]},{"primitives":[{"mode":4,"attributes":{"POSITION":64,"NORMAL":65,"TEXCOORD_0":66},"indices":67,"material":0}]},{"primitives":[{"mode":4,"attributes":{"POSITION":68,"NORMAL":69,"TEXCOORD_0":70},"indices":71,"material":0}]},{"primitives":[{"mode":4,"attributes":{"POSITION":72,"NORMAL":73,"TEXCOORD_0":74},"indices":75,"material":0}]},{"primitives":[{"mode":4,"attributes":{"POSITION":76,"NORMAL":77,"TEXCOORD_0":78},"indices":79,"material":0}]}]}